<?xml version="1.0" encoding="UTF-8"?>
<svg xmlns="http://www.w3.org/2000/svg" viewBox="45 230 1600 535" role="img" aria-labelledby="title desc">
  <title id="title">Logo Indigo</title>
  <desc id="desc">Logotipo geométrico negro de Indigo con personaje amarillo asomándose detrás de la I.</desc>
  <g id="personaje-amarillo" transform="translate(0 942) scale(.1 -.1)" fill="#F1C844" stroke="none">
    <path d="M2060 5946 c-111 -20 -156 -34 -246 -75 -110 -52 -176 -96 -263 -177
-188 -175 -297 -386 -337 -655 -14 -97 -15 -130 -5 -221 16 -152 43 -247 106
-373 124 -250 314 -415 583 -505 152 -51 364 -57 512 -14 69 20 183 65 190 75
3 4 4 422 2 929 l-2 921 -73 33 c-133 61 -325 86 -467 62z m267 -427 c85 -41
163 -183 163 -295 0 -63 -32 -122 -77 -141 -30 -12 -44 -13 -79 -3 -90 25
-163 120 -189 247 -35 166 51 256 182 192z m-444 -238 c25 -17 62 -52 81 -78
40 -54 76 -155 76 -214 0 -86 -52 -149 -122 -149 -82 0 -157 62 -209 174 -36
77 -46 142 -29 201 27 95 112 123 203 66z"/>
  </g>
  <g id="logo-negro" transform="translate(0 942) scale(.1 -.1)" fill="#050505" stroke="none">
    <path d="M2668 6763 l-68 -4 0 -452 c0 -1299 1 -2321 3 -2647 l2 -365 340 0
c187 0 447 2 578 4 l237 4 0 1727 0 1727 -57 6 c-59 7 -914 6 -1035 0z"/>
<path d="M8158 6762 l-48 -3 0 -565 0 -565 -61 42 c-274 186 -625 226 -929
107 -356 -140 -607 -421 -714 -799 -41 -146 -56 -259 -56 -424 0 -546 243
-969 674 -1176 128 -62 247 -90 402 -96 151 -6 254 10 369 58 98 40 211 108
272 163 28 25 53 46 55 46 2 0 4 -55 4 -122 l-1 -123 451 -3 451 -2 7 46 c3
26 6 802 6 1725 0 1331 -3 1679 -12 1686 -12 7 -764 12 -870 5z m-285 -1782
c80 -39 159 -107 198 -169 16 -24 38 -73 50 -108 18 -55 20 -82 17 -176 -4
-103 -7 -118 -39 -187 -98 -206 -316 -318 -519 -266 -93 24 -143 51 -212 114
-97 90 -148 215 -148 362 0 204 117 376 304 447 53 20 76 23 171 20 102 -2
115 -5 178 -37z"/>
<path d="M9317 6762 l-27 -3 2 -392 3 -392 525 0 525 0 3 393 2 392 -77 2
c-135 3 -927 3 -956 0z"/>
<path d="M1244 6387 c-49 -45 -56 -99 -21 -159 36 -62 249 -266 303 -289 38
-17 47 -18 76 -6 63 27 74 64 46 156 -36 120 -103 215 -201 287 -53 39 -65 44
-113 44 -47 0 -59 -4 -90 -33z"/>
<path d="M2268 6321 c-33 -29 -33 -30 -36 -135 -3 -88 0 -116 18 -171 12 -36
23 -65 25 -65 1 0 40 -7 85 -16 46 -8 87 -11 91 -7 33 33 37 281 5 345 -38 78
-129 102 -188 49z"/>
<path d="M11524 5855 c-156 -22 -357 -99 -499 -190 -225 -144 -422 -388 -515
-638 -67 -181 -95 -423 -70 -621 21 -177 113 -404 224 -560 111 -155 271 -296
426 -375 321 -165 693 -171 999 -16 68 34 188 121 254 183 l37 36 0 -29 c-1
-60 -30 -169 -61 -224 -62 -110 -163 -200 -294 -261 -107 -51 -200 -70 -334
-70 -183 0 -317 35 -476 126 -47 27 -111 70 -143 96 -54 44 -58 46 -75 30 -17
-15 -159 -196 -236 -301 -19 -25 -57 -75 -86 -111 -29 -36 -64 -85 -78 -109
l-26 -44 37 -45 c39 -48 161 -147 254 -206 139 -88 291 -150 469 -190 346 -78
740 -49 1092 78 472 171 814 509 932 924 60 209 58 161 62 1360 l4 1102 -483
-2 -483 -3 -3 -141 -3 -142 -67 70 c-124 130 -309 231 -478 263 -113 22 -267
26 -380 10z m530 -910 c130 -46 219 -123 271 -237 128 -281 -49 -609 -358
-660 -84 -14 -168 1 -262 45 -78 38 -126 80 -173 155 -55 84 -75 155 -75 257
0 192 90 338 260 424 95 48 229 54 337 16z"/>
<path d="M14610 5856 c-183 -27 -380 -103 -540 -211 -295 -197 -487 -475 -561
-815 -20 -90 -24 -133 -24 -305 0 -174 3 -214 23 -304 30 -132 62 -222 120
-336 60 -117 139 -220 248 -325 181 -174 418 -297 667 -345 507 -99 1065 121
1367 540 153 212 232 429 249 684 32 477 -174 908 -567 1185 -150 106 -370
197 -545 226 -105 18 -333 21 -437 6z m352 -915 c118 -46 213 -141 259 -262
27 -69 36 -207 19 -280 -37 -155 -158 -290 -307 -340 -54 -17 -82 -21 -163
-17 -88 3 -104 7 -171 40 -41 20 -92 55 -114 76 -86 87 -145 227 -145 345 0
61 34 189 64 240 58 99 144 168 260 209 70 25 217 20 298 -11z"/>
<path d="M5360 5844 c-118 -21 -155 -30 -222 -55 -103 -40 -209 -111 -300
-201 l-75 -74 -7 135 c-4 75 -10 138 -12 141 -3 3 -192 6 -420 8 -392 3 -415
2 -422 -15 -8 -20 -8 -57 -4 -1465 l2 -1016 198 -4 c108 -2 308 -1 444 0 l247
4 3 716 3 717 30 60 c23 47 41 67 78 89 40 25 62 30 130 34 92 5 130 -6 186
-54 19 -15 42 -46 52 -69 17 -38 19 -83 19 -767 l0 -728 178 -1 c309 -2 817 3
822 8 10 10 10 1668 -1 1765 -20 190 -69 311 -185 456 -109 136 -273 244 -441
291 -70 19 -251 34 -303 25z"/>
<path d="M834 5811 c-38 -17 -74 -70 -74 -109 0 -72 54 -127 154 -157 81 -25
270 -48 322 -40 60 9 94 41 94 90 0 29 -8 44 -43 79 -72 72 -230 134 -357 142
-41 2 -84 0 -96 -5z"/>
<path d="M9373 5793 l-83 -4 0 -1249 0 -1249 313 -3 c171 -2 408 -2 525 0
l212 3 0 1248 0 1248 -202 6 c-210 6 -622 5 -765 0z"/>
<path d="M2182 5515 c-43 -36 -55 -100 -37 -188 26 -127 99 -222 189 -247 60
-16 107 4 135 59 26 50 27 111 2 190 -50 162 -202 259 -289 186z"/>
<path d="M1722 5285 c-37 -31 -57 -99 -48 -162 14 -102 97 -232 170 -267 49
-23 108 -21 141 6 57 45 69 122 35 229 -53 168 -209 269 -298 194z"/>
  </g>
</svg>
